<svg viewBox="0 0 600 135" fill="none" xmlns="http://www.w3.org/2000/svg">
  <g clip-path="url(#a)">
    <path d="m263.586 79.858 38.689 52.148h29.418l-46.872-62.104c-2.542-3.44-3.632-5.982-3.632-8.503 0-2.52 1.645-4.892 4.722-8.331l44.885-50.526h-29.61l-38.156 43.09c-5.811 6.688-8.545 11.41-8.545 15.938 0 5.79 3.268 10.49 9.079 18.288m204.365-12.306C467.929 29.888 494.271 0 533.516 0 572.761 0 600 28.243 600 67.552c0 39.309-27.965 66.997-66.292 66.997-41.061 0-65.757-28.606-65.757-66.997h-.022Zm106.627-.17c0-26.428-16.173-45.997-40.869-45.997s-40.335 19.206-40.335 45.996c0 26.79 16.707 46.167 40.335 46.167 24.889 0 40.869-19.91 40.869-46.167Zm-178.024 64.646h-45.953v-21.364h50.503c14.528 0 21.984-3.803 21.984-13.95 0-9.059-5.811-11.943-21.62-16.301l-15.083-4.166c-28.158-7.776-37.6-16.834-37.6-38.198s12.711-35.485 43.411-35.485h45.953V24.29h-46.316c-12.904 0-19.249 2.905-19.249 12.134 0 8.695 5.811 12.861 20.701 16.664l15.617 3.974c26.149 6.708 38.519 16.108 38.519 37.13 0 24.269-13.438 37.835-50.867 37.835Zm-226.52 2.905c-33.241 0-53.217-17.732-53.217-52.512V2.713h24.355v78.213c0 18.821 6.003 32.601 28.884 32.601 22.88 0 28.884-12.861 28.884-32.772V2.542h24.333V82.23c0 34.396-19.975 52.683-53.217 52.683M29.526 2.713H5v104.661c0 17.39 7.264 24.632 21.983 24.632h68.884v-21.192H38.776c-7.071 0-9.25-2.179-9.25-9.059V2.713Z" fill="#000"/>
  </g>
  <defs>
    <clipPath id="a">
      <path fill="#fff" d="M0 0h600v134.912H0z"/>
    </clipPath>
  </defs>
</svg>
